<svg width="225" height="48" viewBox="0 0 225 48" fill="none" xmlns="http://www.w3.org/2000/svg">
<path d="M72.564 37.36C70.572 37.36 68.796 36.928 67.236 36.064C65.7 35.176 64.488 33.964 63.6 32.428C62.712 30.892 62.268 29.152 62.268 27.208V11.692H67.164V27.352C67.164 28.48 67.392 29.452 67.848 30.268C68.328 31.084 68.976 31.72 69.792 32.176C70.632 32.608 71.556 32.824 72.564 32.824C73.596 32.824 74.508 32.608 75.3 32.176C76.092 31.72 76.716 31.084 77.172 30.268C77.652 29.452 77.892 28.492 77.892 27.388V11.692H82.824V27.244C82.824 29.188 82.38 30.928 81.492 32.464C80.604 33.976 79.392 35.176 77.856 36.064C76.344 36.928 74.58 37.36 72.564 37.36ZM99.3584 37.36C97.5584 37.36 95.8664 37.036 94.2824 36.388C92.7224 35.716 91.3424 34.78 90.1424 33.58C88.9664 32.38 88.0424 31 87.3704 29.44C86.7224 27.856 86.3984 26.152 86.3984 24.328C86.3984 22.48 86.7344 20.776 87.4064 19.216C88.0784 17.632 89.0144 16.252 90.2144 15.076C91.4144 13.876 92.8184 12.952 94.4264 12.304C96.0344 11.632 97.7744 11.296 99.6464 11.296C101.734 11.296 103.654 11.692 105.406 12.484C107.158 13.252 108.61 14.344 109.762 15.76L106.45 19.072C105.658 18.04 104.674 17.248 103.498 16.696C102.322 16.144 101.026 15.868 99.6104 15.868C98.0024 15.868 96.5744 16.228 95.3264 16.948C94.1024 17.644 93.1424 18.628 92.4464 19.9C91.7504 21.148 91.4024 22.612 91.4024 24.292C91.4024 25.972 91.7384 27.46 92.4104 28.756C93.1064 30.028 94.0424 31.024 95.2184 31.744C96.4184 32.464 97.7864 32.824 99.3224 32.824C100.906 32.824 102.262 32.536 103.39 31.96C104.518 31.36 105.382 30.496 105.982 29.368C106.582 28.216 106.882 26.812 106.882 25.156L110.086 27.352L99.0344 27.244V22.996H111.922V23.68C111.922 26.704 111.382 29.236 110.302 31.276C109.222 33.292 107.734 34.816 105.838 35.848C103.966 36.856 101.806 37.36 99.3584 37.36ZM127.73 37.36C125.882 37.36 124.166 37.036 122.582 36.388C120.998 35.716 119.606 34.792 118.406 33.616C117.23 32.416 116.318 31.024 115.67 29.44C115.046 27.856 114.734 26.152 114.734 24.328C114.734 22.504 115.046 20.8 115.67 19.216C116.318 17.632 117.23 16.252 118.406 15.076C119.606 13.9 120.986 12.976 122.546 12.304C124.13 11.632 125.858 11.296 127.73 11.296C129.746 11.296 131.522 11.632 133.058 12.304C134.594 12.952 135.95 13.852 137.126 15.004L133.814 18.316C133.118 17.548 132.266 16.948 131.258 16.516C130.25 16.084 129.074 15.868 127.73 15.868C126.554 15.868 125.474 16.072 124.49 16.48C123.53 16.864 122.69 17.44 121.97 18.208C121.25 18.952 120.698 19.852 120.314 20.908C119.93 21.94 119.738 23.08 119.738 24.328C119.738 25.6 119.93 26.752 120.314 27.784C120.698 28.816 121.25 29.716 121.97 30.484C122.69 31.228 123.53 31.804 124.49 32.212C125.474 32.62 126.554 32.824 127.73 32.824C129.146 32.824 130.358 32.608 131.366 32.176C132.398 31.744 133.262 31.132 133.958 30.34L137.27 33.652C136.094 34.828 134.726 35.74 133.166 36.388C131.606 37.036 129.794 37.36 127.73 37.36ZM140.674 37V11.692H145.57V37H140.674ZM156.55 37V11.692H161.446V37H156.55ZM143.77 26.092V21.772H157.918V26.092H143.77ZM174.287 37.36C172.535 37.36 170.951 36.964 169.535 36.172C168.143 35.356 167.027 34.264 166.187 32.896C165.371 31.504 164.963 29.956 164.963 28.252C164.963 26.548 165.371 25.024 166.187 23.68C167.003 22.312 168.119 21.232 169.535 20.44C170.951 19.624 172.523 19.216 174.251 19.216C176.027 19.216 177.611 19.624 179.003 20.44C180.419 21.232 181.535 22.312 182.351 23.68C183.167 25.024 183.575 26.548 183.575 28.252C183.575 29.956 183.167 31.504 182.351 32.896C181.535 34.264 180.419 35.356 179.003 36.172C177.611 36.964 176.039 37.36 174.287 37.36ZM174.251 32.968C175.139 32.968 175.919 32.776 176.591 32.392C177.287 31.984 177.815 31.432 178.175 30.736C178.559 30.016 178.751 29.2 178.751 28.288C178.751 27.376 178.559 26.572 178.175 25.876C177.791 25.18 177.263 24.64 176.591 24.256C175.919 23.848 175.139 23.644 174.251 23.644C173.387 23.644 172.619 23.848 171.947 24.256C171.275 24.64 170.747 25.18 170.363 25.876C169.979 26.572 169.787 27.376 169.787 28.288C169.787 29.2 169.979 30.016 170.363 30.736C170.747 31.432 171.275 31.984 171.947 32.392C172.619 32.776 173.387 32.968 174.251 32.968ZM194.783 37.36C193.031 37.36 191.447 36.964 190.031 36.172C188.639 35.356 187.523 34.264 186.683 32.896C185.867 31.504 185.459 29.956 185.459 28.252C185.459 26.548 185.867 25.024 186.683 23.68C187.499 22.312 188.615 21.232 190.031 20.44C191.447 19.624 193.019 19.216 194.747 19.216C196.523 19.216 198.107 19.624 199.499 20.44C200.915 21.232 202.031 22.312 202.847 23.68C203.663 25.024 204.071 26.548 204.071 28.252C204.071 29.956 203.663 31.504 202.847 32.896C202.031 34.264 200.915 35.356 199.499 36.172C198.107 36.964 196.535 37.36 194.783 37.36ZM194.747 32.968C195.635 32.968 196.415 32.776 197.087 32.392C197.783 31.984 198.311 31.432 198.671 30.736C199.055 30.016 199.247 29.2 199.247 28.288C199.247 27.376 199.055 26.572 198.671 25.876C198.287 25.18 197.759 24.64 197.087 24.256C196.415 23.848 195.635 23.644 194.747 23.644C193.883 23.644 193.115 23.848 192.443 24.256C191.771 24.64 191.243 25.18 190.859 25.876C190.475 26.572 190.283 27.376 190.283 28.288C190.283 29.2 190.475 30.016 190.859 30.736C191.243 31.432 191.771 31.984 192.443 32.392C193.115 32.776 193.883 32.968 194.747 32.968ZM218.196 37L211.464 28.036L218.16 19.612H223.596L215.748 29.116L215.928 26.812L223.956 37H218.196ZM207.108 37V10.972H211.824V37H207.108Z" fill="white"/>
<path d="M0 12.6316C0 5.65535 5.65535 0 12.6316 0H35.3684C42.3446 0 48 5.65535 48 12.6316V35.3684C48 42.3446 42.3446 48 35.3684 48H12.6316C5.65535 48 0 42.3446 0 35.3684V12.6316Z" fill="#465FFF"/>
<path d="M24.296 36.668C22.304 36.668 20.528 36.236 18.968 35.372C17.432 34.484 16.22 33.272 15.332 31.736C14.444 30.2 14 28.46 14 26.516V11H18.896V26.66C18.896 27.788 19.124 28.76 19.58 29.576C20.06 30.392 20.708 31.028 21.524 31.484C22.364 31.916 23.288 32.132 24.296 32.132C25.328 32.132 26.24 31.916 27.032 31.484C27.824 31.028 28.448 30.392 28.904 29.576C29.384 28.76 29.624 27.8 29.624 26.696V11H34.556V26.552C34.556 28.496 34.112 30.236 33.224 31.772C32.336 33.284 31.124 34.484 29.588 35.372C28.076 36.236 26.312 36.668 24.296 36.668Z" fill="white"/>
</svg>
