<svg width="154" height="32" viewBox="0 0 154 32" fill="none" xmlns="http://www.w3.org/2000/svg">
<path d="M52.376 25.24C51.048 25.24 49.864 24.952 48.824 24.376C47.8 23.784 46.992 22.976 46.4 21.952C45.808 20.928 45.512 19.768 45.512 18.472V8.128H48.776V18.568C48.776 19.32 48.928 19.968 49.232 20.512C49.552 21.056 49.984 21.48 50.528 21.784C51.088 22.072 51.704 22.216 52.376 22.216C53.064 22.216 53.672 22.072 54.2 21.784C54.728 21.48 55.144 21.056 55.448 20.512C55.768 19.968 55.928 19.328 55.928 18.592V8.128H59.216V18.496C59.216 19.792 58.92 20.952 58.328 21.976C57.736 22.984 56.928 23.784 55.904 24.376C54.896 24.952 53.72 25.24 52.376 25.24ZM70.2389 25.24C69.0389 25.24 67.9109 25.024 66.8549 24.592C65.8149 24.144 64.8949 23.52 64.0949 22.72C63.3109 21.92 62.6949 21 62.2469 19.96C61.8149 18.904 61.5989 17.768 61.5989 16.552C61.5989 15.32 61.8229 14.184 62.2709 13.144C62.7189 12.088 63.3429 11.168 64.1429 10.384C64.9429 9.584 65.8789 8.968 66.9509 8.536C68.0229 8.088 69.1829 7.864 70.4309 7.864C71.8229 7.864 73.1029 8.128 74.2709 8.656C75.4389 9.168 76.4069 9.896 77.1749 10.84L74.9669 13.048C74.4389 12.36 73.7829 11.832 72.9989 11.464C72.2149 11.096 71.3509 10.912 70.4069 10.912C69.3349 10.912 68.3829 11.152 67.5509 11.632C66.7349 12.096 66.0949 12.752 65.6309 13.6C65.1669 14.432 64.9349 15.408 64.9349 16.528C64.9349 17.648 65.1589 18.64 65.6069 19.504C66.0709 20.352 66.6949 21.016 67.4789 21.496C68.2789 21.976 69.1909 22.216 70.2149 22.216C71.2709 22.216 72.1749 22.024 72.9269 21.64C73.6789 21.24 74.2549 20.664 74.6549 19.912C75.0549 19.144 75.2549 18.208 75.2549 17.104L77.3909 18.568L70.0229 18.496V15.664H78.6149V16.12C78.6149 18.136 78.2549 19.824 77.5349 21.184C76.8149 22.528 75.8229 23.544 74.5589 24.232C73.3109 24.904 71.8709 25.24 70.2389 25.24ZM89.1536 25.24C87.9216 25.24 86.7776 25.024 85.7216 24.592C84.6656 24.144 83.7376 23.528 82.9376 22.744C82.1536 21.944 81.5456 21.016 81.1136 19.96C80.6976 18.904 80.4896 17.768 80.4896 16.552C80.4896 15.336 80.6976 14.2 81.1136 13.144C81.5456 12.088 82.1536 11.168 82.9376 10.384C83.7376 9.6 84.6576 8.984 85.6976 8.536C86.7536 8.088 87.9056 7.864 89.1536 7.864C90.4976 7.864 91.6816 8.088 92.7056 8.536C93.7296 8.968 94.6336 9.568 95.4176 10.336L93.2096 12.544C92.7456 12.032 92.1776 11.632 91.5056 11.344C90.8336 11.056 90.0496 10.912 89.1536 10.912C88.3696 10.912 87.6496 11.048 86.9936 11.32C86.3536 11.576 85.7936 11.96 85.3136 12.472C84.8336 12.968 84.4656 13.568 84.2096 14.272C83.9536 14.96 83.8256 15.72 83.8256 16.552C83.8256 17.4 83.9536 18.168 84.2096 18.856C84.4656 19.544 84.8336 20.144 85.3136 20.656C85.7936 21.152 86.3536 21.536 86.9936 21.808C87.6496 22.08 88.3696 22.216 89.1536 22.216C90.0976 22.216 90.9056 22.072 91.5776 21.784C92.2656 21.496 92.8416 21.088 93.3056 20.56L95.5136 22.768C94.7296 23.552 93.8176 24.16 92.7776 24.592C91.7376 25.024 90.5296 25.24 89.1536 25.24ZM97.7827 25V8.128H101.047V25H97.7827ZM108.367 25V8.128H111.631V25H108.367ZM99.8467 17.728V14.848H109.279V17.728H99.8467ZM120.192 25.24C119.024 25.24 117.968 24.976 117.024 24.448C116.096 23.904 115.352 23.176 114.792 22.264C114.248 21.336 113.976 20.304 113.976 19.168C113.976 18.032 114.248 17.016 114.792 16.12C115.336 15.208 116.08 14.488 117.024 13.96C117.968 13.416 119.016 13.144 120.168 13.144C121.352 13.144 122.408 13.416 123.336 13.96C124.28 14.488 125.024 15.208 125.568 16.12C126.112 17.016 126.384 18.032 126.384 19.168C126.384 20.304 126.112 21.336 125.568 22.264C125.024 23.176 124.28 23.904 123.336 24.448C122.408 24.976 121.36 25.24 120.192 25.24ZM120.168 22.312C120.76 22.312 121.28 22.184 121.728 21.928C122.192 21.656 122.544 21.288 122.784 20.824C123.04 20.344 123.168 19.8 123.168 19.192C123.168 18.584 123.04 18.048 122.784 17.584C122.528 17.12 122.176 16.76 121.728 16.504C121.28 16.232 120.76 16.096 120.168 16.096C119.592 16.096 119.08 16.232 118.632 16.504C118.184 16.76 117.832 17.12 117.576 17.584C117.32 18.048 117.192 18.584 117.192 19.192C117.192 19.8 117.32 20.344 117.576 20.824C117.832 21.288 118.184 21.656 118.632 21.928C119.08 22.184 119.592 22.312 120.168 22.312ZM133.856 25.24C132.688 25.24 131.632 24.976 130.688 24.448C129.76 23.904 129.016 23.176 128.456 22.264C127.912 21.336 127.64 20.304 127.64 19.168C127.64 18.032 127.912 17.016 128.456 16.12C129 15.208 129.744 14.488 130.688 13.96C131.632 13.416 132.68 13.144 133.832 13.144C135.016 13.144 136.072 13.416 137 13.96C137.944 14.488 138.688 15.208 139.232 16.12C139.776 17.016 140.048 18.032 140.048 19.168C140.048 20.304 139.776 21.336 139.232 22.264C138.688 23.176 137.944 23.904 137 24.448C136.072 24.976 135.024 25.24 133.856 25.24ZM133.832 22.312C134.424 22.312 134.944 22.184 135.392 21.928C135.856 21.656 136.208 21.288 136.448 20.824C136.704 20.344 136.832 19.8 136.832 19.192C136.832 18.584 136.704 18.048 136.448 17.584C136.192 17.12 135.84 16.76 135.392 16.504C134.944 16.232 134.424 16.096 133.832 16.096C133.256 16.096 132.744 16.232 132.296 16.504C131.848 16.76 131.496 17.12 131.24 17.584C130.984 18.048 130.856 18.584 130.856 19.192C130.856 19.8 130.984 20.344 131.24 20.824C131.496 21.288 131.848 21.656 132.296 21.928C132.744 22.184 133.256 22.312 133.832 22.312ZM149.464 25L144.976 19.024L149.44 13.408H153.064L147.832 19.744L147.952 18.208L153.304 25H149.464ZM142.072 25V7.648H145.216V25H142.072Z" fill="#101828"/>
<path d="M0 8.42107C0 3.77023 3.77023 0 8.42108 0H23.5789C28.2297 0 32 3.77023 32 8.42107V23.5789C32 28.2297 28.2297 32 23.5789 32H8.42108C3.77023 32 0 28.2297 0 23.5789V8.42107Z" fill="#465FFF"/>
<path d="M15.7097 25.5739C14.3817 25.5739 13.1977 25.2859 12.1577 24.7099C11.1337 24.1179 10.3257 23.3099 9.7337 22.2859C9.1417 21.2619 8.8457 20.1019 8.8457 18.8059V8.46191H12.1097V18.9019C12.1097 19.6539 12.2617 20.3019 12.5657 20.8459C12.8857 21.3899 13.3177 21.8139 13.8617 22.1179C14.4217 22.4059 15.0377 22.5499 15.7097 22.5499C16.3977 22.5499 17.0057 22.4059 17.5337 22.1179C18.0617 21.8139 18.4777 21.3899 18.7817 20.8459C19.1017 20.3019 19.2617 19.6619 19.2617 18.9259V8.46191H22.5497V18.8299C22.5497 20.1259 22.2537 21.2859 21.6617 22.3099C21.0697 23.3179 20.2617 24.1179 19.2377 24.7099C18.2297 25.2859 17.0537 25.5739 15.7097 25.5739Z" fill="white"/>
</svg>
